<svg width="28" height="20" viewBox="0 0 28 20" fill="none" xmlns="http://www.w3.org/2000/svg">
<path d="M1 2.5C1 1.672 1.672 1 2.5 1H10.5C11.328 1 12 1.672 12 2.5V7.5C12 8.328 11.328 9 10.5 9H2.5C2.10218 9 1.72064 8.84196 1.43934 8.56066C1.15804 8.27936 1 7.89782 1 7.5V2.5ZM17 4.5C17 3.672 17.672 3 18.5 3H25.5C26.328 3 27 3.672 27 4.5V15.5C27 16.328 26.328 17 25.5 17H18.5C18.1022 17 17.7206 16.842 17.4393 16.5607C17.158 16.2794 17 15.8978 17 15.5V4.5ZM3 14.5C3 13.672 3.672 13 4.5 13H11.5C12.328 13 13 13.672 13 14.5V17.5C13 18.328 12.328 19 11.5 19H4.5C4.10218 19 3.72064 18.842 3.43934 18.5607C3.15804 18.2794 3 17.8978 3 17.5V14.5Z" stroke="#18161F" stroke-width="2" stroke-linecap="round" stroke-linejoin="round"/>
</svg>
